<svg xmlns="http://www.w3.org/2000/svg" version="1.1" xmlns:xlink="http://www.w3.org/1999/xlink" xmlns:svgjs="http://svgjs.dev/svgjs" width="2000" height="1252" viewBox="0 0 2000 1252"><g transform="matrix(1,0,0,1,-1.2121212121212466,-2.01935483870966)"><svg viewBox="0 0 396 248" data-background-color="#220f01" preserveAspectRatio="xMidYMid meet" height="1252" width="2000" xmlns="http://www.w3.org/2000/svg" xmlns:xlink="http://www.w3.org/1999/xlink"><g id="tight-bounds" transform="matrix(1,0,0,1,0.2400000000000091,0.4000000000000057)"><svg viewBox="0 0 395.52 247.2" height="247.2" width="395.52"><g><svg></svg></g><g><svg viewBox="0 0 395.52 247.2" height="247.2" width="395.52"><g transform="matrix(1,0,0,1,75.54432,63.11024334457182)"><svg viewBox="0 0 244.43135999999998 120.97951331085635" height="120.97951331085635" width="244.43135999999998"><g><svg viewBox="0 0 244.43135999999998 120.97951331085635" height="120.97951331085635" width="244.43135999999998"><g><svg viewBox="0 0 244.43135999999998 120.97951331085635" height="120.97951331085635" width="244.43135999999998"><g><svg viewBox="0 0 244.43135999999998 120.97951331085635" height="120.97951331085635" width="244.43135999999998"><g id="textblocktransform"><svg viewBox="0 0 244.43135999999998 120.97951331085635" height="120.97951331085635" width="244.43135999999998" id="textblock"><g><svg viewBox="0 0 244.43135999999998 120.97951331085635" height="120.97951331085635" width="244.43135999999998"><g transform="matrix(1,0,0,1,0,0)"><svg width="244.43135999999998" viewBox="1.75 -36.4 74.15 36.699999999999996" height="120.97951331085635" data-palette-color="url(#3f025ad0-54a3-4c8d-a691-3922334f347e)"></svg></g></svg></g></svg></g></svg></g></svg></g></svg></g></svg></g><g><path d="M0 123.6c0-68.262 55.338-123.6 123.6-123.6 40.163 0 75.852 19.156 98.428 48.83l-6.948 0c-21.666-26.477-54.599-43.375-91.48-43.375-65.25 0-118.145 52.895-118.145 118.145 0 65.25 52.895 118.145 118.145 118.145 36.88 0 69.814-16.899 91.48-43.375h6.948c-22.576 29.674-58.265 48.83-98.428 48.83-68.262 0-123.6-55.338-123.6-123.6z" fill="#e03e0b" stroke="transparent" data-fill-palette-color="tertiary"></path></g></svg></g><defs></defs><mask id="d874bc3d-d8d1-405d-b478-d9268c1803f7"><g id="SvgjsG3677"><svg viewBox="0 0 395.52 247.2" height="247.2" width="395.52"><g><svg></svg></g><g><svg viewBox="0 0 395.52 247.2" height="247.2" width="395.52"><g transform="matrix(1,0,0,1,75.54432,63.11024334457182)"><svg viewBox="0 0 244.43135999999998 120.97951331085635" height="120.97951331085635" width="244.43135999999998"><g><svg viewBox="0 0 244.43135999999998 120.97951331085635" height="120.97951331085635" width="244.43135999999998"><g><svg viewBox="0 0 244.43135999999998 120.97951331085635" height="120.97951331085635" width="244.43135999999998"><g><svg viewBox="0 0 244.43135999999998 120.97951331085635" height="120.97951331085635" width="244.43135999999998"><g id="SvgjsG3676"><svg viewBox="0 0 244.43135999999998 120.97951331085635" height="120.97951331085635" width="244.43135999999998" id="SvgjsSvg3675"><g><svg viewBox="0 0 244.43135999999998 120.97951331085635" height="120.97951331085635" width="244.43135999999998"><g transform="matrix(1,0,0,1,0,0)"><svg width="244.43135999999998" viewBox="1.75 -36.4 74.15 36.699999999999996" height="120.97951331085635" data-palette-color="url(#3f025ad0-54a3-4c8d-a691-3922334f347e)"><path d="M39.4 0L39.4 0Q37.8 0 36.33-0.9 34.85-1.8 33.95-3.75 33.05-5.7 33.05-8.75L33.05-8.75Q33.05-11.25 33.65-14.38 34.25-17.5 35.23-20.65 36.2-23.8 37.35-26.35L37.35-26.35Q33.9-24.05 31.3-20 28.7-15.95 26.8-10.6L26.8-10.6Q27.2-9 27.45-7.6 27.7-6.2 27.7-5.05L27.7-5.05Q27.7-2.85 26.65-1.6 25.6-0.35 23-0.35L23-0.35Q20.7-0.35 19.63-1.38 18.55-2.4 18.55-4.25L18.55-4.25Q18.55-5.45 18.98-7 19.4-8.55 20.2-10.35L20.2-10.35Q19.3-13 18-16.32 16.7-19.65 14.35-23.6L14.35-23.6Q13.65-20.65 12.93-17.73 12.2-14.8 11.73-12.33 11.25-9.85 11.25-8.15L11.25-8.15Q11.25-5.4 12.75-5.4L12.75-5.4 12.85-5.3Q12.85-3.65 12.03-2.48 11.2-1.3 9.93-0.68 8.65-0.05 7.25-0.05L7.25-0.05Q5.9-0.05 4.63-0.7 3.35-1.35 2.55-2.73 1.75-4.1 1.75-6.25L1.75-6.25Q1.75-8.3 2.48-10.73 3.2-13.15 4.3-15.68 5.4-18.2 6.55-20.63 7.7-23.05 8.63-25.18 9.55-27.3 9.85-28.9L9.85-28.9Q8.85-29.6 7.7-29.6L7.7-29.6Q6.75-29.6 5.78-28.98 4.8-28.35 3.95-26.9L3.95-26.9 3.6-27.05Q3.65-29.6 4.7-31.73 5.75-33.85 7.48-35.13 9.2-36.4 11.25-36.4L11.25-36.4Q13.6-36.4 16.1-34.35 18.6-32.3 20.73-27.6 22.85-22.9 24.15-14.9L24.15-14.9Q26.05-21.05 28.25-25.2 30.45-29.35 32.77-31.8 35.1-34.25 37.38-35.33 39.65-36.4 41.7-36.4L41.7-36.4Q44.25-36.4 46.28-35.15 48.3-33.9 49.48-32 50.65-30.1 50.65-28.2L50.65-28.2Q49.4-28.55 48.18-28.7 46.95-28.85 45.8-28.85L45.8-28.85Q44.65-28.85 43.6-28.7L43.6-28.7Q43.15-26.4 42.65-23.58 42.15-20.75 41.78-17.9 41.4-15.05 41.4-12.65L41.4-12.65Q41.4-10.2 41.9-8.65 42.4-7.1 43.65-7.1L43.65-7.1Q44.45-7.1 45.28-7.8 46.1-8.5 46.5-9.95L46.5-9.95 46.85-9.8Q46.85-6.5 45.75-4.33 44.65-2.15 42.93-1.07 41.2 0 39.4 0ZM59.95 0.3L59.95 0.3Q56.6 0.3 54.42-0.85 52.25-2 51.2-3.8 50.15-5.6 50.15-7.5L50.15-7.5Q50.15-9.35 51.05-11.03 51.95-12.7 53.62-13.8 55.3-14.9 57.6-14.9L57.6-14.9Q57.55-14.45 57.55-14.08 57.55-13.7 57.55-13.7L57.55-13.7Q57.55-10.35 58.2-8.43 58.85-6.5 59.85-5.68 60.85-4.85 61.9-4.85L61.9-4.85Q63.5-4.85 64.75-6.13 66-7.4 66-9.1L66-9.1Q66-11 64.37-12.45 62.75-13.9 60.25-15.65L60.25-15.65Q58.85-16.7 57.27-18.03 55.7-19.35 54.6-21.18 53.5-23 53.5-25.5L53.5-25.5Q53.5-28.1 54.72-30.1 55.95-32.1 57.97-33.48 60-34.85 62.42-35.58 64.85-36.3 67.25-36.3L67.25-36.3Q70.2-36.3 72.1-35.35 74-34.4 74.95-32.9 75.9-31.4 75.9-29.8L75.9-29.8Q75.9-28.3 75.07-26.93 74.25-25.55 72.65-24.7 71.05-23.85 68.7-23.85L68.7-23.85Q68.85-24.55 68.9-25.13 68.95-25.7 68.95-26.15L68.95-26.15Q68.95-28.65 67.87-29.73 66.8-30.8 65.5-30.8L65.5-30.8Q64.25-30.8 63.1-29.88 61.95-28.95 61.95-26.9L61.95-26.9Q61.95-25.15 62.87-23.9 63.8-22.65 65.27-21.7 66.75-20.75 68.4-19.85L68.4-19.85Q70.1-18.95 71.67-17.88 73.25-16.8 74.3-15.35 75.35-13.9 75.35-11.7L75.35-11.7Q75.35-9.4 74.1-7.23 72.85-5.05 70.7-3.38 68.55-1.7 65.77-0.7 63 0.3 59.95 0.3Z" opacity="1" transform="matrix(1,0,0,1,0,0)" fill="white" class="wordmark-text-0" id="SvgjsPath3674"></path></svg></g></svg></g></svg></g></svg></g></svg></g></svg></g></svg></g><g><path d="M0 123.6c0-68.262 55.338-123.6 123.6-123.6 40.163 0 75.852 19.156 98.428 48.83l-6.948 0c-21.666-26.477-54.599-43.375-91.48-43.375-65.25 0-118.145 52.895-118.145 118.145 0 65.25 52.895 118.145 118.145 118.145 36.88 0 69.814-16.899 91.48-43.375h6.948c-22.576 29.674-58.265 48.83-98.428 48.83-68.262 0-123.6-55.338-123.6-123.6z" fill="black" stroke="transparent"></path></g></svg></g><defs><mask></mask></defs></svg><rect width="395.52" height="247.2" fill="black" stroke="none" visibility="hidden"></rect></g></mask><linearGradient x1="0" x2="1" y1="0.578" y2="0.595" id="3f025ad0-54a3-4c8d-a691-3922334f347e"><stop stop-color="#6ee2f5" offset="0"></stop><stop stop-color="#6454f0" offset="1"></stop></linearGradient><rect width="395.52" height="247.2" fill="url(#3f025ad0-54a3-4c8d-a691-3922334f347e)" mask="url(#d874bc3d-d8d1-405d-b478-d9268c1803f7)" data-fill-palette-color="primary"></rect></svg><rect width="395.52" height="247.2" fill="none" stroke="none" visibility="hidden"></rect></g></svg></g></svg>